# xmcd
#
# Track frame offsets:
# 150
# 17178
# 41708
# 57928
# 84033
# 108640
# 124978
# 145287
# 170221
#
# Disc length: 2329 seconds
#
#
# Revision: 0
# Processed by: cddbd v1.5.2PL0 Copyright (c) Steve Scherf et al.
# Submitted via: FreeRIP 2.945 
#
DISCID=7e091709
DTITLE=Commodores - Midnight Magic
DYEAR=1900
DGENRE=Soul
TTITLE0=Gettin' It
TTITLE1=Midnight Magic
TTITLE2=You're Special
TTITLE3=Still
TTITLE4=Wonderland
TTITLE5=Sexy Lady
TTITLE6=Lovin' You
TTITLE7=Sail On
TTITLE8=12:01 Am
EXTD=
EXTT0=
EXTT1=
EXTT2=
EXTT3=
EXTT4=
EXTT5=
EXTT6=
EXTT7=
EXTT8=
PLAYORDER=
